<svg xmlns="http://www.w3.org/2000/svg" xmlns:xlink="http://www.w3.org/1999/xlink" width="1200" zoomAndPan="magnify" viewBox="0 0 900 899.99999" height="1200" preserveAspectRatio="xMidYMid meet" version="1.0"><defs><clipPath id="ecc0de6208"><path d="M 134 60.75 L 766 60.75 L 766 839.25 L 134 839.25 Z M 134 60.75 " clip-rule="nonzero"/></clipPath></defs><path fill="#c5bec6" d="M 197.613281 788.289062 L 197.613281 326.300781 C 197.613281 187.132812 310.835938 73.914062 450 73.914062 C 589.164062 73.914062 702.386719 187.132812 702.386719 326.300781 L 702.386719 788.289062 Z M 197.613281 788.289062 " fill-opacity="1" fill-rule="nonzero"/><path fill="#c77e67" d="M 646.152344 786.53125 L 253.847656 786.53125 L 253.847656 326.300781 C 253.847656 217.96875 341.667969 130.148438 450 130.148438 C 558.332031 130.148438 646.152344 217.964844 646.152344 326.300781 Z M 646.152344 786.53125 " fill-opacity="1" fill-rule="nonzero"/><path fill="#be694e" d="M 310.082031 354.683594 C 310.082031 246.351562 397.902344 158.53125 506.234375 158.53125 C 526.796875 158.53125 546.621094 161.703125 565.246094 167.570312 C 532.886719 144.039062 493.070312 130.148438 450 130.148438 C 341.667969 130.148438 253.847656 217.964844 253.847656 326.300781 L 253.847656 786.53125 L 310.082031 786.53125 Z M 310.082031 354.683594 " fill-opacity="1" fill-rule="nonzero"/><path fill="#8c818f" d="M 148.019531 768.957031 L 148.019531 817.300781 C 148.019531 822.152344 151.957031 826.085938 156.808594 826.085938 L 743.195312 826.085938 C 748.046875 826.085938 751.980469 822.152344 751.980469 817.300781 L 751.980469 768.957031 C 751.980469 764.105469 748.046875 760.167969 743.195312 760.167969 L 156.808594 760.167969 C 151.953125 760.167969 148.019531 764.101562 148.019531 768.957031 Z M 148.019531 768.957031 " fill-opacity="1" fill-rule="nonzero"/><path fill="#d8ab8c" d="M 253.847656 574.496094 L 646.148438 574.496094 L 646.148438 636.839844 L 253.847656 636.839844 Z M 253.847656 574.496094 " fill-opacity="1" fill-rule="nonzero"/><path fill="#c7865b" d="M 253.847656 574.496094 L 310.082031 574.496094 L 310.082031 636.839844 L 253.847656 636.839844 Z M 253.847656 574.496094 " fill-opacity="1" fill-rule="nonzero"/><path fill="#655e67" d="M 546.964844 328.109375 C 546.964844 329.699219 546.925781 331.285156 546.847656 332.867188 C 546.769531 334.453125 546.652344 336.035156 546.496094 337.617188 C 546.34375 339.195312 546.148438 340.769531 545.914062 342.339844 C 545.683594 343.910156 545.410156 345.472656 545.101562 347.027344 C 544.792969 348.585938 544.445312 350.132812 544.058594 351.671875 C 543.671875 353.210938 543.25 354.738281 542.789062 356.257812 C 542.328125 357.777344 541.832031 359.285156 541.296875 360.777344 C 540.761719 362.273438 540.191406 363.75 539.582031 365.21875 C 538.976562 366.683594 538.332031 368.132812 537.65625 369.570312 C 536.976562 371.003906 536.261719 372.421875 535.515625 373.820312 C 534.765625 375.21875 533.984375 376.601562 533.167969 377.960938 C 532.351562 379.320312 531.503906 380.664062 530.621094 381.980469 C 529.742188 383.300781 528.828125 384.597656 527.882812 385.871094 C 526.9375 387.148438 525.960938 388.398438 524.953125 389.625 C 523.949219 390.851562 522.910156 392.050781 521.847656 393.230469 C 520.78125 394.40625 519.6875 395.554688 518.5625 396.675781 C 517.441406 397.796875 516.292969 398.890625 515.117188 399.957031 C 513.941406 401.023438 512.742188 402.058594 511.511719 403.066406 C 510.285156 404.074219 509.035156 405.046875 507.761719 405.992188 C 506.488281 406.9375 505.191406 407.851562 503.871094 408.734375 C 502.550781 409.617188 501.210938 410.464844 499.851562 411.28125 C 498.488281 412.097656 497.109375 412.878906 495.707031 413.625 C 494.308594 414.375 492.890625 415.085938 491.457031 415.765625 C 490.023438 416.445312 488.574219 417.085938 487.105469 417.695312 C 485.640625 418.300781 484.160156 418.871094 482.667969 419.40625 C 481.171875 419.941406 479.664062 420.441406 478.148438 420.902344 C 476.628906 421.359375 475.101562 421.785156 473.558594 422.167969 C 472.019531 422.554688 470.472656 422.902344 468.917969 423.210938 C 467.359375 423.523438 465.796875 423.792969 464.226562 424.027344 C 462.65625 424.257812 461.082031 424.453125 459.503906 424.609375 C 457.925781 424.765625 456.34375 424.882812 454.757812 424.957031 C 453.171875 425.035156 451.585938 425.074219 450 425.074219 C 448.414062 425.074219 446.828125 425.035156 445.242188 424.957031 C 443.65625 424.882812 442.074219 424.765625 440.496094 424.609375 C 438.917969 424.453125 437.34375 424.257812 435.773438 424.027344 C 434.203125 423.792969 432.640625 423.523438 431.082031 423.210938 C 429.527344 422.902344 427.980469 422.554688 426.441406 422.167969 C 424.898438 421.785156 423.371094 421.359375 421.851562 420.902344 C 420.335938 420.441406 418.828125 419.941406 417.332031 419.40625 C 415.839844 418.871094 414.359375 418.300781 412.894531 417.695312 C 411.425781 417.085938 409.976562 416.445312 408.542969 415.765625 C 407.109375 415.085938 405.691406 414.375 404.292969 413.625 C 402.890625 412.878906 401.511719 412.097656 400.148438 411.28125 C 398.789062 410.464844 397.449219 409.617188 396.128906 408.734375 C 394.808594 407.851562 393.511719 406.9375 392.238281 405.992188 C 390.964844 405.046875 389.714844 404.074219 388.484375 403.066406 C 387.257812 402.058594 386.058594 401.023438 384.882812 399.957031 C 383.707031 398.890625 382.558594 397.796875 381.4375 396.675781 C 380.3125 395.554688 379.21875 394.40625 378.152344 393.230469 C 377.089844 392.050781 376.050781 390.851562 375.046875 389.625 C 374.039062 388.398438 373.0625 387.148438 372.117188 385.871094 C 371.171875 384.597656 370.257812 383.300781 369.375 381.980469 C 368.496094 380.664062 367.644531 379.320312 366.832031 377.960938 C 366.015625 376.601562 365.234375 375.21875 364.484375 373.820312 C 363.738281 372.421875 363.023438 371.003906 362.34375 369.570312 C 361.667969 368.132812 361.023438 366.683594 360.417969 365.21875 C 359.808594 363.75 359.238281 362.273438 358.703125 360.777344 C 358.167969 359.285156 357.671875 357.777344 357.210938 356.257812 C 356.75 354.738281 356.328125 353.210938 355.941406 351.671875 C 355.554688 350.132812 355.207031 348.585938 354.898438 347.027344 C 354.589844 345.472656 354.316406 343.910156 354.085938 342.339844 C 353.851562 340.769531 353.65625 339.195312 353.503906 337.617188 C 353.347656 336.035156 353.230469 334.453125 353.152344 332.867188 C 353.074219 331.285156 353.035156 329.699219 353.035156 328.109375 C 353.035156 326.523438 353.074219 324.9375 353.152344 323.351562 C 353.230469 321.769531 353.347656 320.1875 353.503906 318.605469 C 353.65625 317.027344 353.851562 315.453125 354.085938 313.882812 C 354.316406 312.3125 354.589844 310.75 354.898438 309.195312 C 355.207031 307.636719 355.554688 306.089844 355.941406 304.550781 C 356.328125 303.011719 356.75 301.480469 357.210938 299.964844 C 357.671875 298.445312 358.167969 296.9375 358.703125 295.445312 C 359.238281 293.949219 359.808594 292.46875 360.417969 291.003906 C 361.023438 289.539062 361.667969 288.089844 362.34375 286.652344 C 363.023438 285.21875 363.738281 283.800781 364.484375 282.402344 C 365.234375 281.003906 366.015625 279.621094 366.832031 278.261719 C 367.644531 276.898438 368.496094 275.558594 369.375 274.242188 C 370.257812 272.921875 371.171875 271.625 372.117188 270.347656 C 373.0625 269.074219 374.039062 267.824219 375.046875 266.597656 C 376.050781 265.371094 377.089844 264.167969 378.152344 262.992188 C 379.21875 261.816406 380.3125 260.667969 381.4375 259.546875 C 382.558594 258.425781 383.707031 257.332031 384.882812 256.265625 C 386.058594 255.199219 387.257812 254.164062 388.484375 253.15625 C 389.714844 252.148438 390.964844 251.171875 392.238281 250.226562 C 393.511719 249.28125 394.808594 248.371094 396.128906 247.488281 C 397.449219 246.605469 398.789062 245.757812 400.148438 244.941406 C 401.511719 244.125 402.890625 243.34375 404.292969 242.597656 C 405.691406 241.847656 407.109375 241.132812 408.542969 240.457031 C 409.976562 239.777344 411.425781 239.136719 412.894531 238.527344 C 414.359375 237.921875 415.839844 237.347656 417.332031 236.816406 C 418.828125 236.28125 420.335938 235.78125 421.851562 235.320312 C 423.371094 234.859375 424.898438 234.4375 426.441406 234.050781 C 427.980469 233.667969 429.527344 233.320312 431.082031 233.007812 C 432.640625 232.699219 434.203125 232.429688 435.773438 232.195312 C 437.34375 231.964844 438.917969 231.769531 440.496094 231.613281 C 442.074219 231.457031 443.65625 231.339844 445.242188 231.261719 C 446.828125 231.183594 448.414062 231.148438 450 231.148438 C 451.585938 231.148438 453.171875 231.183594 454.757812 231.261719 C 456.34375 231.339844 457.925781 231.457031 459.503906 231.613281 C 461.082031 231.769531 462.65625 231.964844 464.226562 232.195312 C 465.796875 232.429688 467.359375 232.699219 468.917969 233.007812 C 470.472656 233.320312 472.019531 233.667969 473.558594 234.050781 C 475.101562 234.4375 476.628906 234.859375 478.148438 235.320312 C 479.664062 235.78125 481.171875 236.28125 482.667969 236.816406 C 484.160156 237.347656 485.640625 237.921875 487.105469 238.527344 C 488.574219 239.136719 490.023438 239.777344 491.457031 240.457031 C 492.890625 241.132812 494.308594 241.847656 495.707031 242.597656 C 497.109375 243.34375 498.488281 244.125 499.851562 244.941406 C 501.210938 245.757812 502.550781 246.605469 503.871094 247.488281 C 505.191406 248.371094 506.488281 249.28125 507.761719 250.226562 C 509.035156 251.171875 510.285156 252.148438 511.511719 253.15625 C 512.742188 254.164062 513.941406 255.199219 515.117188 256.265625 C 516.292969 257.332031 517.441406 258.425781 518.5625 259.546875 C 519.6875 260.667969 520.78125 261.816406 521.847656 262.992188 C 522.910156 264.167969 523.949219 265.371094 524.953125 266.597656 C 525.960938 267.824219 526.9375 269.074219 527.882812 270.347656 C 528.828125 271.625 529.742188 272.921875 530.621094 274.242188 C 531.503906 275.558594 532.351562 276.898438 533.167969 278.261719 C 533.984375 279.621094 534.765625 281.003906 535.515625 282.402344 C 536.261719 283.800781 536.976562 285.21875 537.65625 286.652344 C 538.332031 288.089844 538.976562 289.539062 539.582031 291.003906 C 540.191406 292.46875 540.761719 293.949219 541.296875 295.445312 C 541.832031 296.9375 542.328125 298.445312 542.789062 299.964844 C 543.25 301.480469 543.671875 303.011719 544.058594 304.550781 C 544.445312 306.089844 544.792969 307.636719 545.101562 309.195312 C 545.410156 310.75 545.683594 312.3125 545.914062 313.882812 C 546.148438 315.453125 546.34375 317.027344 546.496094 318.605469 C 546.652344 320.1875 546.769531 321.769531 546.847656 323.351562 C 546.925781 324.9375 546.964844 326.523438 546.964844 328.109375 Z M 546.964844 328.109375 " fill-opacity="1" fill-rule="nonzero"/><path fill="#eec06b" d="M 866.921875 313.070312 C 866.921875 314.945312 866.855469 316.816406 866.726562 318.683594 C 866.59375 320.550781 866.398438 322.40625 866.140625 324.246094 C 865.882812 326.085938 865.558594 327.90625 865.171875 329.699219 C 864.789062 331.496094 864.339844 333.261719 863.832031 334.992188 C 863.324219 336.726562 862.753906 338.421875 862.128906 340.074219 C 861.5 341.730469 860.820312 343.339844 860.082031 344.898438 C 859.34375 346.457031 858.550781 347.964844 857.707031 349.414062 C 856.863281 350.863281 855.972656 352.253906 855.03125 353.578125 C 854.09375 354.90625 853.109375 356.164062 852.082031 357.355469 C 851.054688 358.546875 849.988281 359.660156 848.882812 360.703125 C 847.777344 361.746094 846.636719 362.710938 845.464844 363.59375 C 844.292969 364.480469 843.09375 365.28125 841.867188 366 C 840.636719 366.714844 839.386719 367.347656 838.117188 367.890625 C 836.84375 368.4375 835.554688 368.890625 834.25 369.257812 C 832.949219 369.625 831.632812 369.898438 830.3125 370.082031 C 828.988281 370.265625 827.664062 370.359375 826.332031 370.359375 C 825.003906 370.359375 823.679688 370.265625 822.355469 370.082031 C 821.03125 369.898438 819.71875 369.625 818.414062 369.257812 C 817.113281 368.890625 815.824219 368.4375 814.550781 367.890625 C 813.28125 367.347656 812.03125 366.714844 810.800781 366 C 809.574219 365.28125 808.371094 364.480469 807.199219 363.59375 C 806.027344 362.710938 804.890625 361.746094 803.785156 360.703125 C 802.679688 359.660156 801.613281 358.546875 800.585938 357.355469 C 799.558594 356.164062 798.574219 354.90625 797.632812 353.578125 C 796.695312 352.253906 795.800781 350.863281 794.957031 349.414062 C 794.117188 347.964844 793.324219 346.457031 792.585938 344.898438 C 791.847656 343.339844 791.164062 341.730469 790.539062 340.074219 C 789.910156 338.421875 789.34375 336.726562 788.835938 334.992188 C 788.328125 333.261719 787.878906 331.496094 787.492188 329.699219 C 787.109375 327.90625 786.785156 326.085938 786.527344 324.246094 C 786.265625 322.40625 786.070312 320.550781 785.941406 318.683594 C 785.8125 316.816406 785.746094 314.945312 785.746094 313.070312 C 785.746094 311.195312 785.8125 309.320312 785.941406 307.453125 C 786.070312 305.585938 786.265625 303.734375 786.527344 301.894531 C 786.785156 300.054688 787.109375 298.234375 787.492188 296.441406 C 787.878906 294.644531 788.328125 292.878906 788.835938 291.144531 C 789.34375 289.414062 789.910156 287.71875 790.539062 286.0625 C 791.164062 284.410156 791.847656 282.800781 792.585938 281.242188 C 793.324219 279.683594 794.117188 278.175781 794.960938 276.726562 C 795.800781 275.277344 796.695312 273.886719 797.632812 272.558594 C 798.574219 271.234375 799.558594 269.976562 800.585938 268.785156 C 801.613281 267.59375 802.679688 266.476562 803.785156 265.4375 C 804.890625 264.394531 806.027344 263.429688 807.199219 262.546875 C 808.375 261.660156 809.574219 260.859375 810.800781 260.140625 C 812.03125 259.421875 813.28125 258.792969 814.550781 258.246094 C 815.824219 257.703125 817.113281 257.246094 818.414062 256.882812 C 819.71875 256.515625 821.03125 256.242188 822.355469 256.058594 C 823.679688 255.871094 825.003906 255.78125 826.332031 255.78125 C 827.664062 255.78125 828.988281 255.871094 830.3125 256.058594 C 831.632812 256.242188 832.949219 256.515625 834.25 256.882812 C 835.554688 257.246094 836.84375 257.703125 838.117188 258.246094 C 839.386719 258.792969 840.636719 259.421875 841.867188 260.140625 C 843.09375 260.859375 844.292969 261.660156 845.464844 262.546875 C 846.636719 263.429688 847.777344 264.394531 848.882812 265.4375 C 849.988281 266.476562 851.054688 267.59375 852.082031 268.785156 C 853.109375 269.976562 854.09375 271.234375 855.03125 272.558594 C 855.972656 273.886719 856.863281 275.277344 857.707031 276.726562 C 858.550781 278.175781 859.34375 279.683594 860.082031 281.242188 C 860.820312 282.800781 861.5 284.410156 862.128906 286.0625 C 862.753906 287.71875 863.324219 289.414062 863.832031 291.144531 C 864.339844 292.878906 864.789062 294.644531 865.171875 296.441406 C 865.558594 298.234375 865.882812 300.054688 866.140625 301.894531 C 866.398438 303.734375 866.59375 305.585938 866.726562 307.453125 C 866.855469 309.320312 866.921875 311.195312 866.921875 313.070312 Z M 866.921875 313.070312 " fill-opacity="1" fill-rule="nonzero"/><path fill="#8c818f" d="M 765.96875 363.355469 L 765.96875 415.769531 C 765.96875 417.589844 767.445312 419.0625 769.261719 419.0625 L 883.40625 419.0625 C 885.226562 419.0625 886.699219 417.585938 886.699219 415.769531 L 886.699219 363.355469 C 886.699219 361.539062 885.222656 360.066406 883.40625 360.066406 L 769.261719 360.066406 C 767.441406 360.0625 765.96875 361.539062 765.96875 363.355469 Z M 765.96875 363.355469 " fill-opacity="1" fill-rule="nonzero"/><path fill="#c77e67" d="M 818.558594 578.867188 L 781.140625 419.0625 L 871.523438 419.0625 L 834.109375 578.867188 C 832.183594 587.089844 820.480469 587.089844 818.558594 578.867188 Z M 818.558594 578.867188 " fill-opacity="1" fill-rule="nonzero"/><path fill="#eec06b" d="M 114.253906 313.070312 C 114.253906 314.945312 114.1875 316.816406 114.058594 318.683594 C 113.929688 320.550781 113.734375 322.40625 113.472656 324.246094 C 113.214844 326.085938 112.890625 327.90625 112.507812 329.699219 C 112.121094 331.496094 111.671875 333.261719 111.164062 334.992188 C 110.65625 336.726562 110.089844 338.421875 109.460938 340.074219 C 108.835938 341.730469 108.152344 343.339844 107.414062 344.898438 C 106.675781 346.457031 105.882812 347.964844 105.039062 349.414062 C 104.199219 350.863281 103.304688 352.253906 102.367188 353.578125 C 101.425781 354.90625 100.441406 356.164062 99.414062 357.355469 C 98.386719 358.546875 97.320312 359.660156 96.214844 360.703125 C 95.109375 361.746094 93.972656 362.710938 92.800781 363.59375 C 91.625 364.480469 90.425781 365.28125 89.199219 366 C 87.96875 366.714844 86.71875 367.347656 85.449219 367.890625 C 84.175781 368.4375 82.886719 368.890625 81.585938 369.257812 C 80.28125 369.625 78.96875 369.898438 77.644531 370.082031 C 76.320312 370.265625 74.996094 370.359375 73.667969 370.359375 C 72.335938 370.359375 71.011719 370.265625 69.6875 370.082031 C 68.367188 369.898438 67.050781 369.625 65.75 369.257812 C 64.445312 368.890625 63.15625 368.4375 61.882812 367.890625 C 60.613281 367.347656 59.363281 366.714844 58.132812 366 C 56.90625 365.28125 55.707031 364.480469 54.535156 363.59375 C 53.359375 362.710938 52.222656 361.746094 51.117188 360.703125 C 50.011719 359.660156 48.945312 358.546875 47.917969 357.355469 C 46.890625 356.164062 45.90625 354.90625 44.964844 353.578125 C 44.027344 352.253906 43.136719 350.863281 42.292969 349.414062 C 41.449219 347.964844 40.65625 346.457031 39.917969 344.898438 C 39.179688 343.339844 38.5 341.730469 37.871094 340.074219 C 37.246094 338.421875 36.675781 336.726562 36.167969 334.992188 C 35.660156 333.261719 35.210938 331.496094 34.828125 329.699219 C 34.441406 327.90625 34.117188 326.085938 33.859375 324.246094 C 33.597656 322.40625 33.40625 320.550781 33.273438 318.683594 C 33.144531 316.816406 33.078125 314.945312 33.078125 313.070312 C 33.078125 311.195312 33.144531 309.320312 33.273438 307.453125 C 33.40625 305.585938 33.597656 303.734375 33.859375 301.894531 C 34.117188 300.054688 34.441406 298.234375 34.828125 296.441406 C 35.210938 294.644531 35.660156 292.878906 36.167969 291.144531 C 36.675781 289.414062 37.246094 287.71875 37.871094 286.0625 C 38.5 284.410156 39.179688 282.800781 39.917969 281.242188 C 40.65625 279.683594 41.449219 278.175781 42.292969 276.726562 C 43.136719 275.277344 44.027344 273.886719 44.964844 272.558594 C 45.90625 271.234375 46.890625 269.976562 47.917969 268.785156 C 48.945312 267.59375 50.011719 266.476562 51.117188 265.4375 C 52.222656 264.394531 53.359375 263.429688 54.535156 262.546875 C 55.707031 261.660156 56.90625 260.859375 58.132812 260.140625 C 59.363281 259.421875 60.613281 258.792969 61.882812 258.246094 C 63.15625 257.703125 64.445312 257.246094 65.75 256.882812 C 67.050781 256.515625 68.367188 256.242188 69.6875 256.058594 C 71.011719 255.871094 72.335938 255.78125 73.667969 255.78125 C 74.996094 255.78125 76.320312 255.871094 77.644531 256.058594 C 78.96875 256.242188 80.28125 256.515625 81.585938 256.882812 C 82.886719 257.246094 84.175781 257.703125 85.449219 258.246094 C 86.71875 258.792969 87.96875 259.421875 89.199219 260.140625 C 90.425781 260.859375 91.625 261.660156 92.800781 262.546875 C 93.972656 263.429688 95.109375 264.394531 96.214844 265.4375 C 97.320312 266.476562 98.386719 267.59375 99.414062 268.785156 C 100.441406 269.976562 101.425781 271.234375 102.367188 272.558594 C 103.304688 273.886719 104.199219 275.277344 105.039062 276.726562 C 105.882812 278.175781 106.675781 279.683594 107.414062 281.242188 C 108.152344 282.800781 108.835938 284.410156 109.460938 286.0625 C 110.089844 287.71875 110.65625 289.414062 111.164062 291.144531 C 111.671875 292.878906 112.121094 294.644531 112.507812 296.441406 C 112.890625 298.234375 113.214844 300.054688 113.472656 301.894531 C 113.734375 303.734375 113.929688 305.585938 114.058594 307.453125 C 114.1875 309.320312 114.253906 311.195312 114.253906 313.070312 Z M 114.253906 313.070312 " fill-opacity="1" fill-rule="nonzero"/><path fill="#8c818f" d="M 13.300781 363.355469 L 13.300781 415.769531 C 13.300781 417.589844 14.777344 419.0625 16.59375 419.0625 L 130.738281 419.0625 C 132.558594 419.0625 134.03125 417.585938 134.03125 415.769531 L 134.03125 363.355469 C 134.03125 361.539062 132.554688 360.066406 130.738281 360.066406 L 16.59375 360.066406 C 14.777344 360.0625 13.300781 361.539062 13.300781 363.355469 Z M 13.300781 363.355469 " fill-opacity="1" fill-rule="nonzero"/><path fill="#c77e67" d="M 65.890625 578.867188 L 28.476562 419.0625 L 118.859375 419.0625 L 81.445312 578.867188 C 79.519531 587.089844 67.816406 587.089844 65.890625 578.867188 Z M 65.890625 578.867188 " fill-opacity="1" fill-rule="nonzero"/><path fill="#eec06b" d="M 342.523438 502.046875 C 342.523438 502.9375 342.480469 503.828125 342.394531 504.710938 C 342.308594 505.597656 342.175781 506.476562 342.003906 507.347656 C 341.828125 508.222656 341.613281 509.085938 341.355469 509.9375 C 341.097656 510.789062 340.796875 511.625 340.457031 512.445312 C 340.117188 513.269531 339.734375 514.070312 339.316406 514.855469 C 338.898438 515.640625 338.441406 516.402344 337.945312 517.144531 C 337.453125 517.882812 336.921875 518.597656 336.359375 519.285156 C 335.792969 519.972656 335.195312 520.632812 334.566406 521.261719 C 333.9375 521.890625 333.277344 522.488281 332.589844 523.050781 C 331.902344 523.617188 331.1875 524.144531 330.449219 524.640625 C 329.710938 525.132812 328.949219 525.589844 328.164062 526.011719 C 327.378906 526.429688 326.574219 526.808594 325.753906 527.152344 C 324.929688 527.492188 324.09375 527.789062 323.242188 528.050781 C 322.390625 528.308594 321.527344 528.523438 320.65625 528.695312 C 319.78125 528.871094 318.902344 529 318.019531 529.089844 C 317.132812 529.175781 316.246094 529.21875 315.355469 529.21875 C 314.464844 529.21875 313.578125 529.175781 312.691406 529.089844 C 311.804688 529 310.925781 528.871094 310.054688 528.695312 C 309.179688 528.523438 308.320312 528.308594 307.46875 528.050781 C 306.617188 527.789062 305.777344 527.492188 304.957031 527.152344 C 304.136719 526.808594 303.332031 526.429688 302.546875 526.011719 C 301.761719 525.589844 301 525.132812 300.257812 524.640625 C 299.519531 524.144531 298.804688 523.617188 298.117188 523.050781 C 297.429688 522.488281 296.773438 521.890625 296.140625 521.261719 C 295.511719 520.632812 294.917969 519.972656 294.351562 519.285156 C 293.789062 518.597656 293.257812 517.882812 292.761719 517.144531 C 292.269531 516.402344 291.8125 515.640625 291.394531 514.855469 C 290.972656 514.070312 290.59375 513.269531 290.253906 512.445312 C 289.910156 511.625 289.613281 510.789062 289.355469 509.9375 C 289.097656 509.085938 288.878906 508.222656 288.707031 507.347656 C 288.53125 506.476562 288.402344 505.597656 288.316406 504.710938 C 288.226562 503.828125 288.183594 502.9375 288.183594 502.046875 C 288.183594 501.160156 288.226562 500.269531 288.316406 499.386719 C 288.402344 498.5 288.53125 497.621094 288.707031 496.75 C 288.878906 495.875 289.097656 495.011719 289.355469 494.160156 C 289.613281 493.308594 289.914062 492.472656 290.253906 491.652344 C 290.59375 490.828125 290.972656 490.027344 291.394531 489.242188 C 291.8125 488.457031 292.269531 487.695312 292.761719 486.953125 C 293.257812 486.214844 293.789062 485.5 294.351562 484.8125 C 294.917969 484.125 295.511719 483.464844 296.140625 482.835938 C 296.773438 482.207031 297.429688 481.609375 298.117188 481.046875 C 298.804688 480.480469 299.519531 479.953125 300.257812 479.457031 C 301 478.964844 301.761719 478.507812 302.546875 478.085938 C 303.332031 477.667969 304.136719 477.289062 304.957031 476.945312 C 305.777344 476.605469 306.617188 476.308594 307.46875 476.046875 C 308.320312 475.789062 309.179688 475.574219 310.054688 475.402344 C 310.925781 475.226562 311.804688 475.097656 312.691406 475.007812 C 313.578125 474.921875 314.464844 474.878906 315.355469 474.878906 C 316.246094 474.878906 317.132812 474.921875 318.019531 475.007812 C 318.902344 475.097656 319.78125 475.226562 320.65625 475.402344 C 321.527344 475.574219 322.390625 475.789062 323.242188 476.046875 C 324.09375 476.308594 324.929688 476.605469 325.753906 476.945312 C 326.574219 477.289062 327.378906 477.667969 328.164062 478.085938 C 328.949219 478.507812 329.710938 478.964844 330.449219 479.457031 C 331.1875 479.953125 331.902344 480.480469 332.589844 481.046875 C 333.277344 481.609375 333.9375 482.207031 334.566406 482.835938 C 335.195312 483.464844 335.792969 484.125 336.359375 484.8125 C 336.921875 485.5 337.453125 486.214844 337.945312 486.953125 C 338.441406 487.695312 338.898438 488.457031 339.316406 489.242188 C 339.734375 490.027344 340.117188 490.828125 340.457031 491.652344 C 340.796875 492.472656 341.097656 493.308594 341.355469 494.160156 C 341.613281 495.011719 341.828125 495.875 342.003906 496.75 C 342.175781 497.621094 342.308594 498.5 342.394531 499.386719 C 342.480469 500.269531 342.523438 501.160156 342.523438 502.046875 Z M 342.523438 502.046875 " fill-opacity="1" fill-rule="nonzero"/><g clip-path="url(#ecc0de6208)"><path fill="#000000" d="M 743.195312 746.988281 L 715.570312 746.988281 L 715.570312 326.300781 C 715.570312 179.867188 596.433594 60.734375 450 60.734375 C 391.847656 60.734375 336.582031 79.261719 290.1875 114.324219 C 284.378906 118.710938 283.230469 126.980469 287.617188 132.785156 C 292.003906 138.589844 300.265625 139.742188 306.078125 135.355469 C 347.863281 103.78125 397.628906 87.09375 450 87.09375 C 581.898438 87.09375 689.207031 194.402344 689.207031 326.300781 L 689.207031 746.988281 L 659.332031 746.988281 L 659.332031 326.300781 C 659.332031 237.027344 603.152344 160.640625 524.292969 130.601562 C 523.714844 130.335938 523.121094 130.101562 522.503906 129.921875 C 499.902344 121.546875 475.476562 116.96875 450 116.96875 C 424.523438 116.96875 400.097656 121.550781 377.496094 129.921875 C 376.878906 130.101562 376.28125 130.335938 375.703125 130.601562 C 296.847656 160.640625 240.667969 237.027344 240.667969 326.300781 L 240.667969 746.988281 L 210.792969 746.988281 L 210.792969 326.300781 C 210.792969 271.753906 229.71875 218.355469 264.085938 175.945312 C 268.667969 170.292969 267.800781 161.992188 262.144531 157.410156 C 256.488281 152.824219 248.1875 153.699219 243.605469 159.347656 C 205.445312 206.4375 184.429688 265.726562 184.429688 326.300781 L 184.429688 746.988281 L 156.804688 746.988281 C 144.691406 746.988281 134.839844 756.84375 134.839844 768.957031 L 134.839844 817.300781 C 134.839844 829.414062 144.691406 839.265625 156.804688 839.265625 L 743.195312 839.265625 C 755.308594 839.265625 765.160156 829.414062 765.160156 817.300781 L 765.160156 768.957031 C 765.160156 756.84375 755.304688 746.988281 743.195312 746.988281 Z M 394.414062 746.988281 L 394.414062 650.019531 L 505.585938 650.019531 L 505.585938 746.988281 Z M 518.773438 623.660156 L 267.027344 623.660156 L 267.027344 587.675781 L 632.972656 587.675781 L 632.972656 623.660156 Z M 450 244.328125 C 496.199219 244.328125 533.785156 281.914062 533.785156 328.109375 C 533.785156 374.3125 496.199219 411.894531 450 411.894531 C 403.800781 411.894531 366.214844 374.308594 366.214844 328.109375 C 366.214844 281.914062 403.800781 244.328125 450 244.328125 Z M 394.414062 423.144531 C 410.746094 432.730469 429.734375 438.257812 450 438.257812 C 470.265625 438.257812 489.253906 432.730469 505.585938 423.144531 L 505.585938 561.320312 L 394.414062 561.320312 Z M 632.972656 326.300781 L 632.972656 561.316406 L 531.945312 561.316406 L 531.945312 401.617188 C 549.464844 382.105469 560.144531 356.335938 560.144531 328.109375 C 560.144531 299.886719 549.464844 274.117188 531.945312 254.609375 L 531.945312 162.734375 C 591.804688 192.847656 632.972656 254.851562 632.972656 326.300781 Z M 505.585938 151.96875 L 505.585938 233.078125 C 489.253906 223.492188 470.265625 217.964844 450 217.964844 C 429.734375 217.964844 410.746094 223.492188 394.414062 233.078125 L 394.414062 151.96875 C 411.953125 146.363281 430.628906 143.328125 450 143.328125 C 469.371094 143.328125 488.046875 146.363281 505.585938 151.96875 Z M 368.054688 162.734375 L 368.054688 254.609375 C 350.535156 274.117188 339.855469 299.886719 339.855469 328.109375 C 339.855469 356.335938 350.535156 382.105469 368.054688 401.617188 L 368.054688 561.316406 L 267.027344 561.316406 L 267.027344 326.300781 C 267.027344 254.851562 308.195312 192.847656 368.054688 162.734375 Z M 267.027344 650.019531 L 368.054688 650.019531 L 368.054688 746.988281 L 267.027344 746.988281 Z M 738.800781 812.90625 L 161.199219 812.90625 L 161.199219 773.351562 L 546.96875 773.351562 C 554.25 773.351562 560.148438 767.449219 560.148438 760.167969 C 560.148438 752.890625 554.25 746.988281 546.96875 746.988281 L 531.945312 746.988281 L 531.945312 650.019531 L 632.972656 650.019531 L 632.972656 746.988281 L 608.476562 746.988281 C 601.195312 746.988281 595.296875 752.890625 595.296875 760.167969 C 595.296875 767.449219 601.195312 773.351562 608.476562 773.351562 L 738.800781 773.351562 Z M 738.800781 812.90625 " fill-opacity="1" fill-rule="nonzero"/></g><path fill="#000000" d="M 883.40625 346.882812 L 871.914062 346.882812 C 877.230469 336.566406 880.109375 325.023438 880.109375 313.066406 C 880.109375 281.757812 860.253906 253.738281 830.707031 243.347656 C 827.875 242.351562 824.792969 242.351562 821.960938 243.347656 C 792.414062 253.738281 772.558594 281.757812 772.558594 313.066406 C 772.558594 325.027344 775.4375 336.566406 780.753906 346.882812 L 769.261719 346.882812 C 760.179688 346.882812 752.789062 354.273438 752.789062 363.355469 L 752.789062 415.769531 C 752.789062 424.851562 760.179688 432.242188 769.261719 432.242188 L 770.691406 432.242188 L 805.726562 581.875 C 807.976562 591.496094 816.453125 598.214844 826.335938 598.214844 C 836.21875 598.214844 844.691406 591.496094 846.945312 581.875 L 881.976562 432.242188 L 883.410156 432.242188 C 892.488281 432.242188 899.878906 424.855469 899.878906 415.769531 L 899.878906 363.355469 C 899.878906 354.273438 892.488281 346.882812 883.40625 346.882812 Z M 798.917969 313.066406 C 798.917969 294.511719 809.761719 277.75 826.335938 270 C 842.910156 277.75 853.75 294.511719 853.75 313.066406 C 853.75 325.894531 848.628906 337.980469 839.589844 346.882812 L 813.078125 346.882812 C 804.039062 337.980469 798.917969 325.894531 798.917969 313.066406 Z M 779.148438 373.242188 L 873.519531 373.242188 L 873.519531 405.882812 L 779.148438 405.882812 Z M 826.332031 554.261719 L 797.761719 432.242188 L 854.902344 432.242188 Z M 826.332031 554.261719 " fill-opacity="1" fill-rule="nonzero"/><path fill="#000000" d="M 147.210938 415.769531 L 147.210938 363.355469 C 147.210938 354.273438 139.820312 346.882812 130.738281 346.882812 L 119.246094 346.882812 C 124.5625 336.566406 127.441406 325.027344 127.441406 313.066406 C 127.441406 281.757812 107.585938 253.738281 78.039062 243.347656 C 75.207031 242.351562 72.125 242.351562 69.292969 243.347656 C 39.746094 253.738281 19.890625 281.757812 19.890625 313.066406 C 19.890625 325.027344 22.769531 336.566406 28.085938 346.882812 L 16.59375 346.882812 C 7.511719 346.882812 0.121094 354.273438 0.121094 363.355469 L 0.121094 415.769531 C 0.121094 424.851562 7.511719 432.242188 16.59375 432.242188 L 18.027344 432.242188 L 53.058594 581.875 C 55.308594 591.496094 63.785156 598.214844 73.667969 598.214844 C 83.550781 598.214844 92.023438 591.496094 94.277344 581.875 L 129.3125 432.242188 L 130.742188 432.242188 C 139.820312 432.242188 147.210938 424.851562 147.210938 415.769531 Z M 46.253906 313.066406 C 46.253906 294.511719 57.09375 277.75 73.667969 270 C 90.242188 277.75 101.082031 294.511719 101.082031 313.066406 C 101.082031 325.894531 95.960938 337.980469 86.921875 346.882812 L 60.410156 346.882812 C 51.371094 337.980469 46.253906 325.894531 46.253906 313.066406 Z M 26.480469 373.242188 L 120.851562 373.242188 L 120.851562 405.882812 L 26.480469 405.882812 Z M 73.667969 554.261719 L 45.097656 432.242188 L 102.238281 432.242188 Z M 73.667969 554.261719 " fill-opacity="1" fill-rule="nonzero"/><path fill="#000000" d="M 315.355469 542.398438 C 337.605469 542.398438 355.703125 524.296875 355.703125 502.050781 C 355.703125 479.800781 337.605469 461.699219 315.355469 461.699219 C 293.105469 461.699219 275.003906 479.800781 275.003906 502.050781 C 275.003906 524.300781 293.105469 542.398438 315.355469 542.398438 Z M 315.355469 488.058594 C 323.070312 488.058594 329.34375 494.335938 329.34375 502.046875 C 329.34375 509.761719 323.070312 516.039062 315.355469 516.039062 C 307.640625 516.039062 301.363281 509.761719 301.363281 502.046875 C 301.363281 494.335938 307.640625 488.058594 315.355469 488.058594 Z M 315.355469 488.058594 " fill-opacity="1" fill-rule="nonzero"/></svg>